<svg width="39" height="37" viewBox="0 0 39 37" fill="none" xmlns="http://www.w3.org/2000/svg">
<path d="M37.4166 35.4167H1.58331" stroke="#EBEBEB" stroke-width="2.24" stroke-linecap="round"/>
<path d="M1.58331 15.7083L16.1422 4.06125C18.1053 2.49081 20.8946 2.49081 22.8577 4.06125L37.4166 15.7083" stroke="#EBEBEB" stroke-width="2.24" stroke-linecap="round"/>
<path d="M25.7708 5.85417V2.27083C25.7708 1.77608 26.172 1.375 26.6666 1.375H31.1458C31.6405 1.375 32.0416 1.77608 32.0416 2.27083V11.2292" stroke="#EBEBEB" stroke-width="2.24" stroke-linecap="round"/>
<path d="M5.16663 35.4166V13.0208" stroke="#EBEBEB" stroke-width="2.24" stroke-linecap="round"/>
<path d="M33.8333 35.4166V13.0208" stroke="#EBEBEB" stroke-width="2.24" stroke-linecap="round"/>
<path d="M24.875 35.4166V26.4583C24.875 23.9245 24.875 22.6576 24.0879 21.8704C23.3007 21.0833 22.0338 21.0833 19.5 21.0833C16.9662 21.0833 15.6993 21.0833 14.9122 21.8704C14.125 22.6576 14.125 23.9245 14.125 26.4583V35.4166" stroke="#EBEBEB" stroke-width="2.24"/>
<path d="M23.0833 13.0208C23.0833 14.9999 21.479 16.6042 19.5 16.6042C17.5209 16.6042 15.9166 14.9999 15.9166 13.0208C15.9166 11.0418 17.5209 9.4375 19.5 9.4375C21.479 9.4375 23.0833 11.0418 23.0833 13.0208Z" stroke="#EBEBEB" stroke-width="2.24"/>
</svg>
