<svg width="56" height="84" viewBox="0 0 56 84" fill="none" xmlns="http://www.w3.org/2000/svg">
<path d="M15.7715 27.4834C16.5343 27.8517 17.1181 27.9676 17.5889 27.8467C18.0556 27.7268 18.4375 27.3671 18.7794 26.7178C19.2358 25.8485 19.3487 25.0668 19.1719 23.9199C19.0425 23.0964 19.0245 22.3869 19.1163 21.8437L19.1631 21.6211C19.4294 20.5772 20.1301 19.6159 21.0049 19.0781L21.1827 18.9756C21.4305 18.8442 21.5779 18.755 21.6729 18.6719C21.762 18.594 21.8061 18.5212 21.8419 18.417C21.8767 18.3073 21.8709 18.2106 21.8399 18.1387C21.8093 18.068 21.7509 18.0119 21.6651 17.9824H21.6631C21.5599 17.9447 21.3314 17.9162 21.0567 17.9053C20.7863 17.8945 20.486 17.9011 20.2501 17.9277C18.2434 18.1596 16.4495 19.3888 15.379 21.2402L15.1749 21.6191C14.6816 22.6107 14.4669 23.5414 14.4669 24.7021C14.4669 25.5033 14.5585 26.0821 14.7647 26.5176C14.9434 26.8948 15.2116 27.1716 15.5987 27.3926L15.7715 27.4834Z" fill="#FF0000" stroke="black" stroke-width="0.2"/>
<path d="M38.0044 27.8099C38.3274 27.9526 38.8521 27.9193 39.4868 27.6869C40.177 27.4341 40.6183 27.1253 40.8911 26.6673C41.1316 26.2634 41.2484 25.7319 41.2719 24.9935L41.2768 24.6644C41.2715 22.8851 40.6062 21.2087 39.4047 19.9203C38.2306 18.6704 36.7798 17.9977 35.0698 17.9115C34.772 17.8952 34.3993 17.9017 34.2475 17.9271H34.2465C34.065 17.9562 33.9653 18.0026 33.9126 18.0589C33.8647 18.11 33.84 18.1866 33.8569 18.3236C33.8736 18.4453 33.9065 18.5246 33.9926 18.6107C34.0395 18.6574 34.1025 18.7066 34.188 18.763L34.519 18.9603C35.2994 19.3972 35.8577 19.9922 36.2797 20.8402C36.6841 21.6586 36.7695 22.6069 36.561 23.9466C36.4957 24.3677 36.4631 24.6343 36.4585 24.8607C36.4539 25.0846 36.4769 25.2724 36.5278 25.5365C36.6161 25.999 36.7898 26.4582 37.0239 26.8587L37.1284 27.0267C37.3856 27.4223 37.6374 27.6448 38.0034 27.8109L38.0044 27.8099Z" fill="#FF0000" stroke="black" stroke-width="0.2"/>
<path d="M19.737 27.0004C20.4516 26.5815 21.2796 25.6476 21.8239 24.641L21.9294 24.4389C22.5261 23.2504 22.7646 21.9487 22.5896 20.9135C22.5329 20.6016 22.4689 20.3975 22.3923 20.2729C22.3548 20.212 22.3163 20.1731 22.278 20.1498C22.2406 20.1272 22.1974 20.1157 22.1442 20.1156C22.0928 20.1156 22.0713 20.1234 22.0495 20.141C22.0345 20.1533 22.0176 20.1715 21.9968 20.1996L21.9196 20.3188C21.3775 21.2432 20.7839 22.0163 20.1774 22.5981C20.0119 22.7589 19.9321 22.8431 19.8942 22.9028C19.8773 22.9294 19.8718 22.9467 19.8698 22.9604C19.8677 22.9753 19.8687 22.994 19.8747 23.0268C20.1921 24.77 20.1189 25.9107 19.5944 26.9711C19.5701 27.0228 19.5486 27.0728 19.528 27.1186L19.737 27.0004Z" fill="#FF0000" stroke="black" stroke-width="0.2"/>
<path d="M36.1277 26.9504C35.8643 26.4306 35.738 25.9695 35.6883 25.3459L35.6717 25.0676C35.6475 24.5379 35.6988 23.8415 35.8006 23.2317L35.8474 22.9768C35.8462 22.9835 35.8496 22.9799 35.8386 22.9563C35.8279 22.9331 35.8072 22.9002 35.7713 22.8537C35.6991 22.7605 35.5773 22.6283 35.3894 22.4368C34.9099 21.9383 34.3176 21.1499 33.8631 20.4016L33.8621 20.4006C33.7734 20.2531 33.7252 20.1832 33.6863 20.1477C33.6696 20.1325 33.6569 20.126 33.6453 20.1223C33.6322 20.1182 33.6144 20.1155 33.5838 20.1155C33.509 20.1155 33.4497 20.1424 33.3904 20.219L33.3894 20.22C33.3275 20.2984 33.2695 20.423 33.2215 20.5871C33.1739 20.75 33.1387 20.9454 33.116 21.1584C33.0707 21.5846 33.0796 22.0754 33.1541 22.5139C33.3201 23.4639 33.7351 24.4422 34.283 25.2717C34.831 26.1015 35.5066 26.7742 36.1902 27.1223C36.1991 27.1266 36.208 27.1309 36.2166 27.135L36.1277 26.9504Z" fill="#FF0000" stroke="black" stroke-width="0.2"/>
<path d="M25.3089 28.7546C25.3089 28.7303 25.3008 28.6689 25.2835 28.5807C25.267 28.4962 25.2442 28.3954 25.2201 28.2985L25.1273 27.943L25.1126 27.8864L25.1546 27.8464L25.4378 27.5729C25.6406 27.3716 25.7529 27.1796 25.7894 26.986C25.8166 26.8415 25.8029 26.6881 25.7435 26.5192L25.6683 26.3444C25.6071 26.2241 25.5622 26.1546 25.5082 26.1003C25.4812 26.0732 25.4504 26.0487 25.4115 26.0231L25.266 25.9401C24.9826 25.7978 24.7201 25.7743 24.4466 25.8542C24.0733 25.9671 23.8425 26.2951 23.7904 26.6628C23.7383 27.0314 23.8673 27.4241 24.1937 27.6559C24.3046 27.7348 24.3822 27.7915 24.4388 27.9079C24.4895 28.0121 24.523 28.1651 24.5814 28.4264L24.5824 28.4294C24.6123 28.5823 24.6394 28.7226 24.6585 28.8249C24.668 28.8756 24.6761 28.9177 24.681 28.9479C24.6835 28.9629 24.6857 28.9767 24.6869 28.987C24.6874 28.9918 24.6876 28.9982 24.6878 29.0046C24.6879 29.0074 24.6885 29.0132 24.6878 29.0202C24.6875 29.0237 24.6862 29.0307 24.6839 29.0387L24.6585 29.0827L24.6322 29.1012C24.6275 29.1037 24.6234 29.1059 24.6205 29.1071C24.6145 29.1095 24.6075 29.1121 24.6019 29.1139C24.5905 29.1176 24.5756 29.1211 24.5589 29.1257C24.5249 29.135 24.4778 29.1478 24.4212 29.1618C24.3081 29.1899 24.1538 29.2264 23.9857 29.2673H23.9847C21.117 29.9373 19.0643 31.2557 18.3216 32.8708L18.2416 33.0544C18.0695 33.473 18.0043 33.8419 18.0043 34.3708C18.0069 35.6392 18.511 37.0563 19.3851 38.404C20.2585 39.7506 21.4977 41.0218 22.9613 41.9987C24.3627 42.9304 25.7607 43.41 27.2972 43.4802C29.0895 43.5615 30.3723 43.3126 31.7367 42.6218C34.0942 41.4291 36.3239 39.0245 37.2396 36.6862C37.5127 35.9906 37.6406 35.4848 37.6898 34.861L37.7064 34.5856C37.7226 34.1811 37.714 33.8974 37.6664 33.6384C37.6189 33.3801 37.5319 33.1409 37.3841 32.8278C36.8326 31.6646 35.4929 30.5747 33.6693 29.8249L33.2982 29.6794C33.0055 29.5715 32.5597 29.4358 32.1585 29.3268C31.9581 29.2724 31.7699 29.2248 31.6185 29.1911C31.4626 29.1564 31.3565 29.1393 31.3138 29.1393C31.2713 29.1393 31.228 29.1324 31.1918 29.1218C31.1735 29.1164 31.1541 29.109 31.1371 29.1003C31.1225 29.0927 31.099 29.0788 31.0814 29.0554L31.0765 29.0475L31.0726 29.0397C31.0632 29.0208 31.0614 29.0025 31.0609 28.9977C31.0601 28.9897 31.0598 28.9819 31.0599 28.9753C31.0601 28.9616 31.0613 28.9454 31.0628 28.9284C31.0661 28.8941 31.0715 28.8488 31.0794 28.7966L31.1507 28.4059C31.2039 28.1576 31.2366 28.0081 31.2845 27.9079C31.3384 27.7954 31.412 27.7433 31.513 27.6774V27.6764C31.7908 27.4871 31.9642 27.1632 31.9593 26.8259C31.9567 26.564 31.8801 26.3457 31.7445 26.1813C31.6087 26.0169 31.4081 25.8979 31.1468 25.8444C30.9708 25.806 30.8199 25.806 30.6839 25.8415C30.5481 25.877 30.4188 25.9504 30.2865 26.068L30.2015 26.1501C30.0169 26.3451 29.9281 26.5677 29.9281 26.7917C29.9282 27.0485 30.045 27.3205 30.2914 27.568L30.558 27.8366L30.5951 27.8747L30.5853 27.9274L30.4867 28.4079L30.389 28.8952L30.3714 28.9811L30.2835 28.9743L29.7884 28.9362C29.1467 28.882 26.7404 28.8819 26.0101 28.9362L25.4222 28.9802L25.3197 28.988L25.3148 28.8845L25.3099 28.7595L25.3089 28.7546Z" fill="#FF0000" stroke="black" stroke-width="0.2"/>
<path d="M17.275 32.9973C17.3135 32.9264 17.3587 32.8307 17.3981 32.7278C17.5882 32.2447 17.9707 31.6433 18.3961 31.1712C18.4865 31.069 18.5467 31.0049 18.5866 30.9514C18.6246 30.9003 18.6283 30.8777 18.6276 30.8626C18.6264 30.8417 18.6148 30.8063 18.5651 30.7327C18.5165 30.6607 18.4449 30.5688 18.3424 30.4339C18.1438 30.1729 17.9825 29.7358 17.9118 29.2932L17.8864 29.1038C17.874 28.9822 17.8647 28.8969 17.8502 28.8352C17.8358 28.7738 17.8196 28.7524 17.8082 28.7425C17.7975 28.7332 17.776 28.7207 17.7164 28.7171C17.6562 28.7134 17.574 28.7191 17.4557 28.7288C17.1953 28.7515 16.9088 28.7345 16.6344 28.6839L16.6334 28.6829C16.3929 28.6345 16.065 28.5222 15.7535 28.3919C15.4423 28.2617 15.1376 28.1104 14.9469 27.9788C14.8816 27.9342 14.8154 27.8935 14.7623 27.8645C14.7431 27.8541 14.7255 27.8467 14.7116 27.8401C14.7104 27.8417 14.7089 27.8432 14.7076 27.845L14.6383 27.97C14.5969 28.0712 14.5654 28.2238 14.5475 28.4143C14.5296 28.6049 14.5254 28.8274 14.5348 29.0608C14.5536 29.5284 14.6266 30.0344 14.7457 30.4202C14.9913 31.2194 15.4605 31.9503 16.0241 32.3948V32.3958C16.208 32.5436 16.5018 32.7274 16.7643 32.8694C16.895 32.9402 17.0158 32.9991 17.109 33.0374C17.1559 33.0567 17.1943 33.0696 17.2213 33.0764C17.2231 33.0769 17.2246 33.078 17.2262 33.0784C17.2393 33.0598 17.256 33.0324 17.275 32.9973Z" fill="#FF0000" stroke="black" stroke-width="0.2"/>
<path d="M38.4941 33.0666C38.5734 33.0549 38.7118 33.0005 38.9306 32.8879C40.0469 32.3163 40.731 31.4486 41.0508 30.1906C41.1297 29.8787 41.1761 29.3978 41.1836 28.9513C41.1873 28.729 41.1817 28.5177 41.166 28.3429C41.15 28.1642 41.124 28.0353 41.0947 27.9699C41.0682 27.9128 41.0489 27.8775 41.0322 27.8566C41.0243 27.8468 41.0189 27.8425 41.0166 27.841H41.0156C41.0153 27.8409 41.0021 27.839 40.9658 27.8576C40.9305 27.8758 40.8844 27.907 40.8213 27.9543L40.8203 27.9552L40.6992 28.0334C40.5597 28.1175 40.3687 28.2173 40.1699 28.3107C39.9034 28.436 39.6138 28.5554 39.4033 28.6203L39.4014 28.6213C39.1607 28.6903 38.8733 28.7231 38.4668 28.7287H38.4648C38.3013 28.7287 38.1521 28.7357 38.041 28.7463C37.9854 28.7516 37.9411 28.7576 37.9101 28.7638C37.905 28.7649 37.9005 28.7668 37.8965 28.7677C37.8957 28.7702 37.8944 28.7727 37.8935 28.7756C37.8854 28.8016 37.876 28.8385 37.8662 28.884C37.8466 28.9746 37.8267 29.094 37.8135 29.2189V29.2209L37.7812 29.4211C37.693 29.8819 37.5041 30.2933 37.2305 30.6232L37.2285 30.6252C37.1742 30.6875 37.1272 30.7512 37.0937 30.8019C37.0787 30.8248 37.0673 30.844 37.0596 30.8586C37.0662 30.8698 37.0747 30.8846 37.0869 30.9015C37.1172 30.9438 37.161 30.9962 37.2099 31.048C37.461 31.3144 37.7727 31.7438 38.0205 32.1359C38.1446 32.3324 38.254 32.522 38.333 32.6799C38.3724 32.7587 38.4048 32.8314 38.4277 32.8937C38.4495 32.9529 38.4667 33.0129 38.4668 33.0636C38.4668 33.0661 38.4667 33.0686 38.4668 33.0705C38.4728 33.0706 38.4817 33.0684 38.4941 33.0666Z" fill="#FF0000" stroke="black" stroke-width="0.2"/>
<path d="M12.4351 34.0539L12.5015 34.011C12.5134 34.0014 12.5337 33.981 12.5611 33.9455C12.5889 33.9095 12.6207 33.8628 12.6548 33.8088C12.7229 33.7011 12.7984 33.5666 12.8687 33.428C12.939 33.2893 13.0033 33.1482 13.0504 33.0285C13.0739 32.9686 13.0932 32.9149 13.106 32.8703L13.1246 32.7776C13.1241 32.7409 13.1111 32.6899 13.067 32.6086C13.022 32.5257 12.9486 32.4189 12.8355 32.2727C12.468 31.8014 12.1679 31.2785 11.9576 30.7561L11.8726 30.5324C11.7537 30.2068 11.6354 30.018 11.5279 29.9387C11.4783 29.9021 11.4358 29.8916 11.3961 29.8967C11.3535 29.9023 11.2992 29.9277 11.2349 29.9875L11.1968 30.0295C11.1836 30.0463 11.1701 30.0659 11.1578 30.0862C11.1454 30.1065 11.1351 30.1257 11.1275 30.1428L11.1119 30.1897L11.0982 30.3059C11.095 30.3598 11.0932 30.4284 11.0933 30.509C11.0936 30.6651 11.101 30.8556 11.1129 31.051C11.1367 31.4452 11.1801 31.8454 11.2261 32.0207C11.3212 32.3764 11.5348 32.8598 11.7613 33.2717C11.8742 33.477 11.9886 33.6623 12.0914 33.803C12.1428 33.8734 12.1903 33.9316 12.232 33.9748C12.2728 34.0171 12.3031 34.0395 12.3218 34.049C12.367 34.0681 12.3854 34.0698 12.399 34.0676C12.4076 34.0662 12.419 34.0623 12.4351 34.0539Z" fill="#FF0000" stroke="black" stroke-width="0.2"/>
<path d="M43.3176 34.0614C43.3521 34.0695 43.3997 34.0617 43.4748 33.996C43.5508 33.9294 43.6388 33.8164 43.7463 33.6503C44.3905 32.6415 44.6399 31.8555 44.6506 30.7773C44.6561 30.4422 44.657 30.2776 44.6428 30.1796C44.6362 30.1344 44.627 30.1092 44.6164 30.0898C44.605 30.069 44.5888 30.0494 44.5588 30.0165C44.4963 29.9515 44.427 29.917 44.3605 29.9091C44.2948 29.9014 44.2246 29.9185 44.1564 29.9677L44.1535 29.9697L44.1457 29.9775C44.1396 29.9843 44.1312 29.994 44.1223 30.0068C44.1041 30.0324 44.0831 30.067 44.0607 30.1083C44.0384 30.1497 44.0157 30.1967 43.9933 30.246L43.9299 30.3984C43.7085 30.9834 43.3646 31.6419 43.0432 32.0937L42.9074 32.2734C42.8085 32.3997 42.7304 32.511 42.6769 32.5995C42.6501 32.644 42.6307 32.6815 42.6183 32.7109C42.6123 32.7252 42.608 32.7364 42.6057 32.745C42.6035 32.753 42.6028 32.7572 42.6027 32.7577C42.6027 32.7569 42.6036 32.7624 42.6066 32.7763C42.6094 32.7892 42.6141 32.8065 42.6203 32.8271C42.6329 32.8686 42.6514 32.922 42.675 32.9833C42.6986 33.0447 42.7267 33.1134 42.758 33.1855L42.8596 33.4091C42.9637 33.6265 43.0524 33.7869 43.132 33.8964C43.2137 34.0088 43.2746 34.0513 43.3176 34.0614Z" fill="#FF0000" stroke="black" stroke-width="0.2"/>
<path d="M17.1749 36.5325C17.2224 36.5303 17.2438 36.5215 17.2559 36.514L17.3047 36.4593C17.3263 36.4254 17.3343 36.4109 17.3389 36.3939C17.3435 36.3768 17.3467 36.349 17.3409 36.2903C17.3287 36.1685 17.2825 35.9548 17.1866 35.514C17.1521 35.3603 17.1274 35.2525 17.0987 35.1702C17.0708 35.0903 17.0423 35.0429 17.004 35.0081C16.9642 34.9721 16.9053 34.9421 16.8047 34.9095C16.7038 34.8768 16.5707 34.8447 16.3858 34.8021C15.6118 34.6132 14.8505 34.2572 14.2823 33.7981C14.0837 33.6374 13.9731 33.5597 13.8975 33.5315C13.8639 33.5191 13.8431 33.5187 13.8282 33.5218C13.8115 33.5252 13.7902 33.5355 13.7579 33.5599C13.7524 33.5646 13.7383 33.5792 13.7169 33.6106C13.6952 33.6424 13.6708 33.6848 13.6436 33.7347C13.5894 33.8341 13.529 33.9603 13.4727 34.0911C13.4164 34.2221 13.3645 34.3562 13.3272 34.47C13.2884 34.5885 13.2696 34.6723 13.2696 34.7103C13.2696 34.7958 13.303 34.8844 13.4229 35.0081C13.5458 35.1349 13.7498 35.2892 14.0733 35.5023C14.8176 35.9865 15.6107 36.2925 16.5557 36.4544C16.8975 36.5126 17.0726 36.5374 17.1749 36.5325Z" fill="#FF0000" stroke="black" stroke-width="0.2"/>
<path d="M38.5373 36.5376C38.6141 36.5382 38.7561 36.5155 39.0636 36.4653H39.0646C39.7515 36.3566 40.3835 36.1694 40.9611 35.9009L41.2052 35.7808C41.6369 35.5585 41.9696 35.3436 42.1926 35.1499C42.3039 35.0532 42.3857 34.9643 42.4386 34.8843C42.4919 34.8037 42.5119 34.7381 42.5119 34.688C42.5117 34.6865 42.5115 34.6819 42.5099 34.6743C42.5077 34.6637 42.5033 34.6497 42.4982 34.6323C42.4879 34.5975 42.4726 34.5531 42.4533 34.5015C42.4145 34.398 42.3615 34.2697 42.3039 34.1411C42.2463 34.0126 42.1852 33.8845 42.131 33.7808C42.0744 33.6724 42.0308 33.6024 42.0099 33.5796L42.009 33.5786C41.9803 33.5465 41.9598 33.5328 41.9445 33.5269C41.9316 33.5219 41.914 33.5189 41.884 33.5269C41.8134 33.5456 41.7063 33.6112 41.5187 33.7554C40.7511 34.3435 40.1883 34.6073 39.2551 34.8237C39.1156 34.8561 38.9817 34.8928 38.8801 34.9253C38.8293 34.9416 38.7875 34.9558 38.758 34.9683C38.7432 34.9745 38.7331 34.9804 38.7267 34.9839C38.7191 34.9882 38.7224 34.9874 38.7287 34.981L38.7267 34.9839C38.7313 34.9791 38.7304 34.9763 38.7258 34.9849C38.7216 34.9926 38.7169 35.0047 38.7101 35.021C38.6967 35.0535 38.6799 35.0982 38.6623 35.1528C38.6272 35.2617 38.5874 35.4039 38.55 35.5523C38.5126 35.7004 38.4786 35.8537 38.4533 35.9849C38.4274 36.1188 38.4123 36.2218 38.4123 36.2739C38.4123 36.3134 38.4191 36.3627 38.4308 36.4077C38.4433 36.4553 38.4583 36.4857 38.467 36.4966L38.4699 36.4995C38.4893 36.526 38.494 36.5303 38.4963 36.5318C38.4963 36.5318 38.498 36.5335 38.5031 36.5347C38.5091 36.536 38.5199 36.5375 38.5373 36.5376Z" fill="#FF0000"/>
<path d="M38.7267 34.9839C38.7331 34.9804 38.7432 34.9745 38.758 34.9683C38.7875 34.9558 38.8293 34.9416 38.8801 34.9253C38.9817 34.8928 39.1156 34.8561 39.2551 34.8237C40.1883 34.6073 40.7511 34.3435 41.5187 33.7554C41.7063 33.6112 41.8134 33.5456 41.884 33.5269C41.914 33.5189 41.9316 33.5219 41.9445 33.5269C41.9598 33.5328 41.9803 33.5465 42.009 33.5786L42.0099 33.5796C42.0308 33.6024 42.0744 33.6724 42.131 33.7808C42.1852 33.8845 42.2463 34.0126 42.3039 34.1411C42.3615 34.2697 42.4145 34.398 42.4533 34.5015C42.4726 34.5531 42.4879 34.5975 42.4982 34.6323C42.5033 34.6497 42.5077 34.6637 42.5099 34.6743C42.5115 34.6819 42.5117 34.6865 42.5119 34.688C42.5119 34.7381 42.4919 34.8037 42.4386 34.8843C42.3857 34.9643 42.3039 35.0532 42.1926 35.1499C41.9696 35.3436 41.6369 35.5585 41.2052 35.7808L40.9611 35.9009C40.3835 36.1694 39.7515 36.3566 39.0646 36.4653H39.0636C38.7561 36.5155 38.6141 36.5382 38.5373 36.5376C38.5199 36.5375 38.5091 36.536 38.5031 36.5347C38.498 36.5335 38.4963 36.5318 38.4963 36.5318C38.494 36.5303 38.4893 36.526 38.4699 36.4995L38.467 36.4966C38.4583 36.4857 38.4433 36.4553 38.4308 36.4077C38.4191 36.3627 38.4123 36.3134 38.4123 36.2739C38.4123 36.2218 38.4274 36.1188 38.4533 35.9849C38.4786 35.8537 38.5126 35.7004 38.55 35.5523C38.5874 35.4039 38.6272 35.2617 38.6623 35.1528C38.6799 35.0982 38.6967 35.0535 38.7101 35.021C38.7169 35.0047 38.7216 34.9926 38.7258 34.9849C38.7304 34.9763 38.7313 34.9791 38.7267 34.9839ZM38.7267 34.9839C38.7191 34.9882 38.7224 34.9874 38.7287 34.981L38.7267 34.9839Z" stroke="black" stroke-width="0.2"/>
<path d="M14.9938 39.9769C15.0864 39.9693 15.2399 39.9242 15.5095 39.8275C16.2731 39.5555 16.8405 39.454 17.652 39.4476L18.0153 39.4496L18.822 39.4652L18.8288 39.4076C18.8313 39.3818 18.8239 39.3357 18.7868 39.2543C18.75 39.1736 18.6884 39.0684 18.5944 38.9281C18.4467 38.7082 18.2697 38.4201 18.2018 38.2894V38.2875C18.1209 38.1247 18.0484 38.0453 17.9186 37.9955C17.7756 37.9406 17.5566 37.9188 17.1677 37.9105C16.8027 37.8997 16.352 37.9273 16.1257 37.9642C15.6843 38.0454 15.3011 38.1531 14.9997 38.2806C14.9342 38.3075 14.8886 38.3359 14.8571 38.3695C14.8263 38.4024 14.8023 38.4469 14.7858 38.514C14.7512 38.6554 14.7553 38.8789 14.7936 39.2611C14.8098 39.4289 14.8293 39.5912 14.8493 39.7171C14.8593 39.7803 14.8696 39.8336 14.8786 39.8734C14.8831 39.8933 14.8868 39.9091 14.8903 39.9203C14.8942 39.9327 14.8962 39.9344 14.8942 39.931L14.8971 39.9379C14.909 39.9617 14.9187 39.968 14.9245 39.9711C14.9321 39.9749 14.9506 39.9805 14.9938 39.9769Z" fill="#FF0000" stroke="black" stroke-width="0.2"/>
<path d="M40.8016 39.9695C40.8039 39.968 40.8127 39.9615 40.825 39.9265L40.826 39.9236C40.8416 39.884 40.8615 39.7908 40.8807 39.6589C40.8993 39.5311 40.9164 39.3768 40.9295 39.2234C40.9427 39.0701 40.9517 38.9186 40.9549 38.7957C40.9566 38.7341 40.9565 38.68 40.9549 38.6375C40.9533 38.5938 40.9506 38.5686 40.9481 38.5583C40.9252 38.4726 40.8793 38.4044 40.7782 38.3386C40.6717 38.2693 40.5066 38.2049 40.2498 38.1316L40.2489 38.1306C39.8758 38.0208 39.4256 37.9443 39.0067 37.9099C38.5853 37.8753 38.2062 37.8848 37.9715 37.9412H37.9696C37.7596 37.9886 37.6136 38.0937 37.5282 38.24L37.4959 38.3044C37.4716 38.3647 37.4196 38.4638 37.3553 38.575L37.1385 38.9226C37.0418 39.0657 36.9787 39.1723 36.9413 39.2537C36.9223 39.2948 36.9112 39.3273 36.9051 39.3523L36.8993 39.408L36.9051 39.4646L37.6844 39.4441C38.6968 39.422 39.215 39.5008 40.119 39.8054L40.118 39.8064C40.4546 39.9173 40.6345 39.9686 40.7372 39.9763C40.7859 39.98 40.7993 39.971 40.8016 39.9695Z" fill="#FF0000" stroke="black" stroke-width="0.2"/>
<path d="M11.7541 42.8964C11.8588 42.9544 11.9534 42.9547 12.049 42.9023C12.1523 42.8456 12.265 42.7235 12.381 42.5195C12.6533 42.0393 13.2638 41.2825 13.7218 40.8554C13.9059 40.6843 14.002 40.5885 14.0529 40.5175C14.0767 40.4843 14.0884 40.4593 14.0949 40.4375L14.1037 40.3535C14.1008 40.1881 14.0643 39.8674 14.0197 39.5751C13.9974 39.4292 13.9731 39.2921 13.9513 39.1884C13.9404 39.1365 13.9308 39.094 13.922 39.0634C13.9178 39.0487 13.914 39.0382 13.9113 39.0312C13.8789 38.9926 13.841 38.9723 13.7961 38.9677C13.7474 38.9629 13.6827 38.975 13.6017 39.0156L13.5998 39.0166L13.4992 39.083C13.4575 39.1152 13.4084 39.1575 13.3527 39.2089C13.2446 39.3088 13.1201 39.4368 12.9933 39.5771C12.739 39.8585 12.4799 40.1844 12.3293 40.4287C12.0349 40.9078 11.8315 41.3986 11.7101 41.9228L11.6632 42.1494L11.633 42.3281C11.6101 42.4906 11.6067 42.6096 11.6213 42.6972C11.6392 42.8057 11.6831 42.8599 11.7521 42.8955L11.7541 42.8964ZM13.9142 39.0332L13.9123 39.0322C13.913 39.0331 13.9143 39.0341 13.9152 39.0351L13.9142 39.0332Z" fill="#FF0000" stroke="black" stroke-width="0.2"/>
<path d="M43.7457 42.9197C43.9158 42.9507 44.0471 42.8805 44.1011 42.7566L44.1197 42.6999C44.1307 42.6492 44.1306 42.5569 44.1148 42.4284C44.0993 42.3025 44.0703 42.151 44.0308 41.99C43.9518 41.6675 43.8324 41.3109 43.7027 41.0368C43.3909 40.3777 43.1347 39.9929 42.7076 39.5368C42.432 39.2435 42.2475 39.0763 42.1119 39.0007C42.0458 38.9639 41.9992 38.9536 41.9654 38.9548C41.9336 38.956 41.9014 38.9681 41.8638 38.9988L41.8629 38.9997L41.8228 39.0447C41.8099 39.0657 41.7975 39.095 41.7847 39.1374C41.7581 39.2259 41.7347 39.3606 41.7047 39.5798L41.7037 39.5808C41.6695 39.8173 41.6448 39.9893 41.6324 40.1228C41.62 40.2562 41.6213 40.3418 41.6363 40.4079C41.6653 40.5353 41.7461 40.6118 41.9781 40.8279C42.4638 41.2772 42.91 41.8195 43.3111 42.449L43.3101 42.4499C43.4471 42.6591 43.5255 42.7695 43.5875 42.8337C43.6165 42.8638 43.6401 42.8811 43.6617 42.8923C43.6837 42.9036 43.7095 42.9114 43.7466 42.9187L43.7457 42.9197Z" fill="#FF0000" stroke="black" stroke-width="0.2"/>
<path d="M17.7946 43.1949C17.8487 43.1701 17.9183 43.1162 18.0163 43.026L18.0172 43.025C18.6988 42.4027 19.7101 42.0641 20.8815 42.0641C21.0058 42.0641 21.064 42.0579 21.0983 42.0455C21.11 42.0413 21.1199 42.0358 21.1305 42.026L21.1676 41.9781C21.1922 41.9404 21.202 41.9153 21.2047 41.8971C21.207 41.8817 21.2057 41.8643 21.193 41.8395C21.1776 41.8096 21.149 41.7743 21.1032 41.7291L20.9059 41.5582C20.7601 41.4399 20.4846 41.1801 20.2975 40.9811L19.983 40.65L19.6051 40.6403H19.6041C19.3264 40.6297 19.0686 40.6611 18.7995 40.7301C18.5305 40.8018 18.2217 40.9261 17.944 41.067C17.7345 41.1733 17.547 41.2865 17.4088 41.3912L17.2877 41.4928C17.1375 41.6386 17.0861 41.7242 17.0866 41.8424C17.0868 41.9076 17.1032 41.9894 17.1413 42.1022C17.1603 42.1585 17.1845 42.221 17.2135 42.2916L17.3161 42.5279C17.4085 42.7357 17.482 42.8916 17.5465 43.0035C17.6126 43.1181 17.6617 43.173 17.6989 43.1959C17.7149 43.2057 17.7274 43.2094 17.7389 43.2096C17.7515 43.2098 17.7694 43.2064 17.7946 43.1949Z" fill="#FF0000" stroke="black" stroke-width="0.2"/>
<path d="M38.0282 43.1978C38.0442 43.1914 38.0661 43.1763 38.0965 43.1421C38.1272 43.1082 38.1788 43.0235 38.2411 42.9009C38.3014 42.7822 38.3674 42.6373 38.4286 42.4908C38.4897 42.3442 38.5455 42.1972 38.5858 42.0747C38.606 42.0134 38.6219 41.959 38.6327 41.9146C38.6439 41.8683 38.6483 41.8389 38.6483 41.8247C38.6482 41.7177 38.6029 41.6125 38.4755 41.4917C38.3449 41.3681 38.1347 41.2352 37.8212 41.0777C37.4298 40.8852 36.9843 40.7416 36.5995 40.6695C36.4071 40.6334 36.2324 40.6158 36.0887 40.6177C35.9417 40.6197 35.8401 40.6423 35.784 40.6753L35.7811 40.6763L35.7274 40.7183C35.6982 40.7425 35.6612 40.7744 35.62 40.812C35.5378 40.8873 35.4386 40.9832 35.3417 41.0806C35.1448 41.2784 34.8764 41.5316 34.7489 41.6431L34.7479 41.6441L34.6708 41.7154C34.6043 41.7846 34.5667 41.8472 34.5516 41.897C34.542 41.9289 34.543 41.9528 34.5477 41.9703C34.5522 41.9869 34.5615 42.0044 34.5819 42.021C34.5758 42.0166 34.5737 42.0163 34.5809 42.0191C34.5878 42.0217 34.6 42.0257 34.6171 42.0298C34.6508 42.0379 34.6978 42.0463 34.7557 42.0542C34.8718 42.0701 35.0241 42.0842 35.1825 42.0923C36.2377 42.1423 37.0071 42.4093 37.6327 42.9585C37.7173 43.0328 37.7865 43.0887 37.8436 43.1285C37.9012 43.1685 37.9426 43.1882 37.9725 43.1968C37.9995 43.2045 38.0152 43.2029 38.0282 43.1978Z" fill="#FF0000" stroke="black" stroke-width="0.2"/>
<path d="M15.5784 47.3557C15.6882 47.4973 15.8744 47.5092 16.0061 47.3811C16.061 47.3257 16.0967 47.2597 16.1224 47.135L16.1458 46.9876C16.2556 45.9726 16.4865 45.1716 16.8645 44.4954C16.9145 44.4029 16.9604 44.3056 16.9935 44.2229C17.01 44.1814 17.023 44.1442 17.0315 44.1145C17.0407 44.0828 17.0423 44.0662 17.0423 44.0618V44.054C17.0417 44.0492 17.0399 44.0431 17.0384 44.0354C17.0352 44.0195 17.0305 43.9991 17.0237 43.9749C17.0101 43.9263 16.9901 43.8646 16.9651 43.7942C16.9152 43.6538 16.8466 43.4814 16.7747 43.3118C16.7029 43.1424 16.6275 42.9769 16.5638 42.8489C16.5318 42.7847 16.5032 42.731 16.4798 42.6917C16.468 42.6719 16.4591 42.6562 16.4515 42.6458C16.4486 42.6419 16.446 42.6397 16.4446 42.638C16.3858 42.5959 16.3348 42.5869 16.2884 42.5979C16.238 42.6099 16.1767 42.6489 16.1116 42.7337C16.0275 42.843 15.9213 43.0474 15.8138 43.3069C15.7073 43.564 15.6031 43.8679 15.5198 44.1702C15.3874 44.6493 15.3302 45.353 15.345 45.9905C15.3524 46.3083 15.3776 46.6069 15.4192 46.8499C15.4617 47.0976 15.5184 47.2713 15.5794 47.3548L15.5784 47.3557Z" fill="#FF0000" stroke="black" stroke-width="0.2"/>
<path d="M39.7527 47.3957C39.8698 47.5047 40.0444 47.4972 40.1326 47.4016C40.1562 47.3761 40.1839 47.3301 40.2117 47.2609C40.239 47.1931 40.2649 47.1083 40.2879 47.009C40.334 46.8101 40.3683 46.56 40.3885 46.2873C40.4238 45.8093 40.4148 45.2695 40.3514 44.8234L40.3201 44.6379C40.2479 44.2702 40.1185 43.8385 39.9774 43.467C39.9068 43.2812 39.8335 43.1117 39.7645 42.9738C39.6948 42.8347 39.6325 42.7347 39.5838 42.6809C39.4673 42.5554 39.3065 42.5731 39.2342 42.6838C39.1615 42.7977 39.0242 43.1114 38.9022 43.426C38.8417 43.5817 38.7859 43.7346 38.7459 43.8576C38.726 43.919 38.7097 43.9719 38.699 44.0139C38.6937 44.0346 38.6908 44.052 38.6883 44.0656C38.6871 44.0723 38.6858 44.0781 38.6854 44.0822C38.6851 44.0842 38.6845 44.086 38.6844 44.0871V44.0891C38.6844 44.1189 38.6926 44.1654 38.7088 44.215C38.7251 44.2648 38.7462 44.3083 38.7664 44.3342L38.7674 44.3332L38.7703 44.3381C39.1032 44.8199 39.4065 45.6952 39.533 46.5461C39.5907 46.9322 39.6194 47.1197 39.6492 47.2277C39.6635 47.2792 39.6763 47.3067 39.6893 47.3264C39.7029 47.347 39.7201 47.3643 39.7527 47.3957Z" fill="#FF0000" stroke="black" stroke-width="0.2"/>
</svg>
