<svg width="28" height="36" viewBox="0 0 28 36" fill="none" xmlns="http://www.w3.org/2000/svg">
<path d="M9.27173 2.95519C9.27173 2.95519 14.7523 -0.752271 15.6658 4.78206" stroke="#EBEBEB" stroke-width="1.91045"/>
<path d="M15.1821 3.27759C15.1821 3.27759 16.2568 1.45072 20.9851 1.66565C20.9851 3.17013 19.5881 6.98505 17.4926 7.68356C22.5971 10.6925 26.3583 19.6119 26.3583 24.9851C26.3583 31.4865 20.8239 34.9791 14.0001 34.9791C7.17617 34.9791 1.64185 31.4865 1.64185 24.9851C1.64185 19.6657 5.34931 10.6925 10.5075 7.68356C8.41199 6.98505 7.01498 3.17013 7.01498 1.66565C7.01498 1.66565 9.37916 3.76117 12.3881 3.76117" stroke="#EBEBEB" stroke-width="1.91045"/>
<path d="M10.1313 7.52234H18.3522" stroke="#EBEBEB" stroke-width="1.91045"/>
<path d="M18.3523 8.22088C18.3523 8.22088 24.3702 8.05969 24.3702 11.4448" stroke="#EBEBEB" stroke-width="1.91045"/>
<path d="M18.4597 7.19997C18.4597 7.19997 23.1881 7.46863 25.9284 5.6955" stroke="#EBEBEB" stroke-width="1.91045"/>
<path d="M11.8508 25.3612C11.8508 26.7582 13.0329 27.8328 14.5374 27.8328C15.9881 27.8328 17.224 26.7044 17.224 25.3612C17.224 23.3194 14.5374 22.4059 14.5374 22.4059C14.5374 22.4059 11.8508 21.385 11.8508 19.4507C11.8508 18.0537 13.0329 16.9791 14.5374 16.9791C15.9881 16.9791 17.224 18.1074 17.224 19.4507" stroke="#EBEBEB" stroke-width="1.91045"/>
<path d="M14.5911 14.2388V30.5731" stroke="#EBEBEB" stroke-width="1.91045"/>
</svg>
