<svg width="89" height="18" viewBox="0 0 89 18" fill="none" xmlns="http://www.w3.org/2000/svg">
<path d="M48.2013 5.07983C48.8061 5.07975 49.3785 4.77382 49.7784 4.32886C50.1782 3.88402 50.416 3.28927 50.3351 2.70093C50.1399 1.29619 48.4406 0.469987 47.1544 1.13257L47.1534 1.13354C46.2507 1.60736 45.8166 2.68887 46.1368 3.64819L46.1925 3.78491C46.343 4.10237 46.6346 4.40441 46.9679 4.63452C47.3491 4.89769 47.8042 5.07983 48.2013 5.07983Z" fill="#EE0000" stroke="black" stroke-width="0.2"/>
<path d="M7.34375 17.6338C10.251 17.6392 11.7185 17.6415 12.4912 17.5752C12.8753 17.5423 13.1049 17.4914 13.2568 17.4043C13.3766 17.3355 13.4432 17.2475 13.4971 17.1514L13.5488 17.0527L13.6299 16.8096C13.663 16.697 13.7014 16.5545 13.7432 16.3936C13.8278 16.0675 13.9263 15.6556 14.0137 15.2354C14.1171 14.7573 14.1916 14.3785 14.2305 14.0801C14.269 13.7839 14.2744 13.5557 14.2324 13.3838C14.1884 13.2036 14.091 13.0834 13.9365 13.0146C13.7921 12.9504 13.604 12.9346 13.3828 12.9346C13.2852 12.9346 13.1928 12.9455 13.0967 12.9912C13.0021 13.0363 12.9116 13.1106 12.8105 13.2236C12.7107 13.3354 12.594 13.4914 12.4463 13.707L11.8955 14.5479C11.4662 15.2106 11.2593 15.5121 10.8857 15.667C10.6968 15.7453 10.459 15.7873 10.1182 15.8096C9.77737 15.8318 9.34177 15.834 8.75879 15.834C8.23386 15.834 7.82578 15.8286 7.50586 15.8115C7.18531 15.7944 6.95894 15.7649 6.79395 15.7178C6.63122 15.6713 6.53366 15.6088 6.46484 15.5283C6.39407 15.4455 6.34572 15.3349 6.29785 15.1748L6.29688 15.1729C6.28951 15.1501 6.28034 15.1012 6.27148 15.0186C6.26287 14.9382 6.25497 14.8319 6.24805 14.6992C6.23422 14.4341 6.22457 14.0659 6.21777 13.5889C6.20419 12.6342 6.20396 11.2468 6.21484 9.38379C6.2312 6.30641 6.22338 4.89703 6.33496 4.12207C6.39001 3.73983 6.47247 3.52233 6.59668 3.33789C6.72558 3.1465 6.89841 2.98879 7.15527 2.71875C7.42214 2.43924 7.59624 2.21429 7.66797 2.02148C7.70475 1.92253 7.71649 1.82665 7.69629 1.73438C7.67602 1.642 7.62559 1.56315 7.55566 1.49414C7.52354 1.46252 7.47713 1.44606 7.43848 1.43555C7.39489 1.4237 7.33919 1.41383 7.27246 1.40527C7.13845 1.38809 6.9475 1.37533 6.69238 1.36523C6.18158 1.34502 5.40205 1.33692 4.27637 1.33691C2.81541 1.33691 2.04088 1.33913 1.61914 1.36621C1.41026 1.37964 1.27602 1.39978 1.18555 1.43359C1.13819 1.45132 1.0999 1.47375 1.06836 1.50293C1.03715 1.53183 1.01687 1.56355 1.00098 1.5918L0.999023 1.5957C0.964494 1.66385 0.926576 1.73172 0.910156 1.7959C0.890745 1.87186 0.898829 1.94331 0.938477 2.02246C0.974756 2.09483 1.03842 2.17639 1.12891 2.2793C1.22068 2.38366 1.3477 2.51817 1.51562 2.69727L1.76074 2.97266C1.83985 3.06741 1.9148 3.16369 1.98242 3.25488C2.11908 3.43918 2.21914 3.59708 2.25781 3.6875C2.28145 3.74518 2.30545 3.85394 2.3252 4.06445C2.34474 4.27309 2.35956 4.57296 2.37109 5.00684C2.39417 5.87509 2.40234 7.27261 2.40234 9.5332C2.40234 12.6411 2.4049 14.1581 2.31055 14.9775C2.26355 15.3855 2.19405 15.607 2.09668 15.7627C1.99857 15.9195 1.86808 16.0186 1.66797 16.1777C1.48082 16.3255 1.35463 16.4334 1.28613 16.5557C1.21329 16.6858 1.2109 16.8198 1.22754 16.9951C1.23857 17.1512 1.26171 17.2763 1.32324 17.3691C1.38885 17.4678 1.48687 17.5135 1.60449 17.543V17.5439H1.60547L1.6084 17.5449V17.5439C1.62777 17.5489 1.6537 17.5533 1.67871 17.5557C1.70841 17.5584 1.7471 17.5609 1.79297 17.5635C1.88484 17.5686 2.01037 17.5735 2.16504 17.5781C2.47472 17.5874 2.90424 17.5952 3.42188 17.6025C4.45734 17.6173 5.8476 17.6284 7.34375 17.6338Z" fill="#EE0000" stroke="black" stroke-width="0.2"/>
<path d="M34.1323 17.644C34.8241 17.644 35.4867 17.6335 35.9956 17.6147C36.2498 17.6053 36.4669 17.5938 36.6303 17.5805C36.7117 17.5739 36.7809 17.5667 36.8354 17.559C36.8831 17.5523 36.9289 17.5432 36.9614 17.5307H36.9624C37.0881 17.4853 37.1884 17.4162 37.2514 17.3207C37.3151 17.2241 37.335 17.1104 37.3178 16.9916C37.2927 16.8184 37.189 16.6282 37.0219 16.433L36.8344 16.2368C36.5065 15.9237 36.3339 15.7104 36.2368 15.392C36.1371 15.0651 36.1147 14.6207 36.1147 13.8393V12.5971H36.4292C37.1839 12.5917 38.0744 12.5327 38.8754 12.4438C39.6742 12.3551 40.3923 12.2363 40.7993 12.1098C43.3412 11.3244 44.8187 9.37571 44.8188 6.82758C44.8188 5.52403 44.4402 4.41814 43.6997 3.54144C42.9598 2.66575 41.8653 2.02611 40.4477 1.64105L40.4467 1.64008C39.6159 1.42143 39.2629 1.40074 35.3627 1.35785C34.2091 1.34711 33.1505 1.34686 32.3745 1.35492C31.9867 1.35895 31.6687 1.36572 31.4448 1.37347C31.3332 1.37734 31.2435 1.38136 31.1801 1.38617C31.1487 1.38856 31.1216 1.39096 31.101 1.39398C31.091 1.39546 31.0798 1.39722 31.0698 1.39984C31.0649 1.40113 31.0584 1.40371 31.0512 1.40668C31.0458 1.40891 31.0296 1.41577 31.0151 1.43011C30.866 1.57767 30.864 1.79837 30.9409 2.02191C31.019 2.24876 31.1862 2.50756 31.4252 2.77094C31.6424 3.01001 31.7894 3.15589 31.8989 3.3432C32.0056 3.52592 32.0784 3.75267 32.1264 4.14886C32.2234 4.94911 32.2153 6.39831 32.2153 9.46918C32.2153 11.391 32.2073 12.7832 32.187 13.727C32.1768 14.1988 32.1636 14.5577 32.1469 14.8139C32.1386 14.9421 32.1295 15.0441 32.1196 15.1205C32.1094 15.199 32.0989 15.2437 32.0913 15.2641L32.0893 15.27C32.0613 15.357 31.9841 15.4944 31.8764 15.6498C31.7703 15.803 31.6401 15.9662 31.5131 16.102V16.101C31.244 16.3884 31.0769 16.6427 31.0346 16.8696C31.0129 16.9862 31.0243 17.0972 31.0717 17.1987C31.1186 17.2989 31.1978 17.3831 31.3002 17.4545L31.3022 17.4555C31.4307 17.5422 31.6228 17.5854 32.0249 17.6108C32.4325 17.6365 33.0777 17.644 34.1323 17.644ZM37.9018 10.8735C37.3906 10.9003 37.0582 10.899 36.8178 10.8569C36.5842 10.8159 36.4394 10.7355 36.3022 10.6C36.259 10.5573 36.2304 10.5216 36.2065 10.4457C36.1804 10.3625 36.1601 10.2307 36.146 9.99457C36.1176 9.52324 36.1147 8.67086 36.1147 7.04242C36.1147 5.15201 36.1149 4.21888 36.1987 3.72894C36.2401 3.4867 36.2998 3.3731 36.3725 3.30511C36.449 3.23367 36.5531 3.19842 36.7299 3.14301H36.729C36.9602 3.07353 37.3529 3.06142 37.767 3.10004C38.0761 3.12887 38.387 3.18521 38.6391 3.26117L38.8696 3.3432C39.6123 3.6733 40.1399 4.15224 40.4721 4.81195C40.8058 5.47448 40.9464 6.3281 40.8979 7.41351C40.8761 7.90203 40.8523 8.21238 40.8022 8.47015C40.7526 8.72529 40.6769 8.93207 40.5483 9.21234V9.21332C40.2926 9.78101 39.9879 10.1682 39.5756 10.4272C39.1616 10.6872 38.6279 10.8247 37.9018 10.8725V10.8735Z" fill="#EE0000" stroke="black" stroke-width="0.2"/>
<path d="M48.3274 17.6461C48.9137 17.6495 49.4996 17.6417 49.9593 17.6237C50.189 17.6146 50.3887 17.6033 50.5413 17.5885C50.6172 17.5812 50.6829 17.5724 50.7356 17.5631C50.7602 17.5588 50.7852 17.5545 50.8079 17.5485L50.8684 17.526L50.8704 17.525L50.9485 17.4742C51.1148 17.3438 51.1696 17.1356 51.136 16.9186C51.0979 16.6731 50.9474 16.4038 50.7073 16.1725L50.7063 16.1715C50.5267 16.0051 50.4063 15.8958 50.3167 15.7477C50.2284 15.6017 50.1663 15.4106 50.1243 15.0807C50.0396 14.415 50.0423 13.2267 50.0423 10.8004C50.0423 8.74578 50.0389 7.64235 50.013 7.03284C50.0001 6.72967 49.9818 6.54089 49.9524 6.41663C49.9213 6.28539 49.8761 6.21677 49.8118 6.16077L49.8108 6.16174C49.7462 6.09941 49.6637 6.0483 49.5813 6.01428C49.5012 5.98121 49.4119 5.96031 49.3323 5.96545C49.3304 5.96546 49.3284 5.96537 49.3264 5.96545H49.3235V5.96643C49.2964 5.96798 49.2622 5.9749 49.2307 5.98303C49.1914 5.99322 49.1416 6.00762 49.0833 6.026C48.9661 6.06296 48.8104 6.11596 48.6282 6.18127C48.2637 6.31196 47.7892 6.49202 47.2932 6.69104V6.69202C46.459 7.02884 46.0026 7.21668 45.7522 7.35608C45.6267 7.42598 45.5413 7.48946 45.4866 7.56213C45.4297 7.63785 45.4137 7.71431 45.4046 7.79065C45.365 8.06504 45.4926 8.27875 45.7766 8.59143L46.011 8.8551C46.0778 8.93411 46.1341 9.00679 46.1819 9.08167C46.275 9.22734 46.3383 9.38394 46.3811 9.61584C46.4688 10.0902 46.469 10.8593 46.469 12.444C46.469 13.4095 46.4581 14.1407 46.4378 14.65C46.4276 14.9048 46.4152 15.1032 46.4007 15.2467C46.3934 15.3185 46.386 15.3757 46.3782 15.4186C46.3704 15.4613 46.3624 15.4831 46.3587 15.4918C46.2832 15.6163 46.0534 15.916 45.8206 16.1666V16.1676C45.5664 16.4405 45.4133 16.7002 45.3958 16.9332C45.3869 17.0529 45.4137 17.1646 45.4788 17.2623C45.543 17.3587 45.6404 17.4356 45.763 17.4948C45.798 17.512 45.8472 17.5242 45.8987 17.5338C45.9532 17.544 46.0212 17.5527 46.0989 17.5612C46.2546 17.5782 46.457 17.5932 46.6888 17.6051C47.1526 17.6289 47.7411 17.6428 48.3274 17.6461Z" fill="#EE0000" stroke="black" stroke-width="0.2"/>
<path d="M63.2708 17.644C64.1732 17.644 64.732 17.6366 65.0911 17.6108C65.3579 17.5916 65.5251 17.5618 65.6458 17.5121L65.7532 17.4555L65.7542 17.4545C65.8543 17.3856 65.9318 17.3038 65.9788 17.2065C66.0263 17.1081 66.0396 17.0004 66.0218 16.8871C65.9871 16.6662 65.8337 16.4227 65.5853 16.1557C65.3584 15.9104 65.1155 15.5958 65.0452 15.4672C65.0412 15.4581 65.0334 15.4359 65.0237 15.395C65.0137 15.3523 65.003 15.2957 64.9915 15.227C64.9686 15.0898 64.9443 14.9062 64.9193 14.687C64.8692 14.2487 64.8172 13.6707 64.7737 13.0385C64.6106 10.6337 64.4285 9.48545 64.0491 8.60101L63.97 8.42719C63.5153 7.48574 62.9557 6.89794 62.0843 6.47894L62.0833 6.47992C61.7417 6.31401 61.5326 6.21907 61.2708 6.16937C61.0123 6.12033 60.7058 6.11469 60.1702 6.11469H60.1693C59.4846 6.12009 58.9531 6.17956 58.4905 6.32758C58.0264 6.47614 57.6368 6.71246 57.2318 7.06293L57.2308 7.0639L56.8968 7.35883V6.98871C56.8968 6.68408 56.8435 6.42706 56.7357 6.24457C56.6249 6.05732 56.4545 5.94787 56.2386 5.95453H56.2298C56.2088 5.95711 56.1779 5.96591 56.1478 5.97504C56.1145 5.98513 56.0715 5.99884 56.0208 6.01605C55.919 6.05063 55.7827 6.09951 55.6214 6.15863C55.2983 6.27702 54.8732 6.43831 54.4212 6.61566L54.4193 6.61664C53.9726 6.79942 53.5415 6.98269 53.2083 7.13226C53.042 7.20695 52.8988 7.27318 52.7903 7.32758C52.7362 7.35474 52.6897 7.37959 52.6526 7.40082C52.6181 7.42063 52.5858 7.44107 52.5638 7.46039L52.5081 7.51605C52.4567 7.57441 52.4196 7.64057 52.3997 7.71429C52.3734 7.81182 52.3779 7.9158 52.4075 8.02191C52.4659 8.23123 52.6242 8.46075 52.8626 8.7016L53.0784 8.93402C53.1406 9.00718 53.194 9.07811 53.2396 9.15277C53.3294 9.30006 53.3937 9.46695 53.4388 9.70355C53.5304 10.1846 53.5413 10.9359 53.5413 12.3578C53.5413 13.0976 53.5279 13.7783 53.5062 14.3041C53.4953 14.567 53.4822 14.7905 53.4681 14.9633C53.4539 15.1363 53.4396 15.2511 53.4261 15.3041L53.3968 15.3871C53.3602 15.4769 53.3018 15.5871 53.2298 15.7026C53.1347 15.8551 53.0191 16.0109 52.9046 16.1342H52.9036C52.6369 16.4249 52.4742 16.7125 52.4446 16.9604C52.4297 17.0864 52.4487 17.2063 52.511 17.308C52.558 17.3844 52.6263 17.4455 52.7112 17.4907L52.8021 17.5307C52.8337 17.5431 52.8776 17.5521 52.9232 17.559C52.9742 17.5668 53.0388 17.5739 53.1136 17.5805C53.2635 17.5938 53.4611 17.6053 53.6907 17.6147C54.1507 17.6335 54.7451 17.644 55.3607 17.644C56.2956 17.644 56.8736 17.6366 57.2435 17.6108C57.5178 17.5916 57.6887 17.5619 57.8109 17.5121L57.9193 17.4555V17.4545C58.0195 17.3856 58.0967 17.3039 58.1429 17.2065C58.1894 17.1082 58.2013 17.0009 58.1819 16.8881C58.1442 16.6685 57.9887 16.4225 57.7415 16.1459C57.6315 16.011 57.5212 15.8527 57.4349 15.7055C57.3459 15.5538 57.2888 15.4253 57.2757 15.3481L57.2747 15.3412C57.2714 15.3272 57.2665 15.2927 57.262 15.2328C57.2577 15.1754 57.2547 15.0999 57.2513 15.0092C57.2445 14.8281 57.2393 14.587 57.2366 14.3032C57.2339 14.0191 57.2333 13.6925 57.2347 13.3412L57.2444 12.2299L57.2698 10.6508C57.2793 10.2553 57.2911 9.97443 57.3099 9.76215C57.3286 9.55122 57.3539 9.41203 57.388 9.2973C57.405 9.24019 57.4246 9.18821 57.4476 9.13519L57.5276 8.96625L57.5286 8.96527C57.697 8.62262 57.9018 8.37127 58.1478 8.19769C58.3935 8.02428 58.6864 7.92394 59.0364 7.89301H59.0355C59.381 7.86727 59.66 7.91508 59.8919 8.03558C60.0658 8.126 60.2189 8.26031 60.3548 8.44574L60.4857 8.64886C60.8428 9.28146 60.9403 9.77584 61.0491 11.5366C61.1036 12.4511 61.2131 13.6558 61.2786 14.2162C61.311 14.4874 61.3317 14.7642 61.3411 14.9897C61.3458 15.1024 61.3475 15.2019 61.346 15.2807C61.3445 15.362 61.3397 15.4143 61.3343 15.4379V15.4389C61.3288 15.4589 61.3133 15.4944 61.2855 15.5453C61.2574 15.5966 61.2201 15.6584 61.1751 15.725C61.1302 15.7915 61.0783 15.8625 61.0228 15.934L60.846 16.1459C60.5298 16.5011 60.3916 16.7564 60.4183 17.0073V17.0082C60.433 17.1386 60.4679 17.2596 60.5657 17.3569C60.6609 17.4514 60.8027 17.5106 61.0013 17.5502C61.3968 17.6291 62.0836 17.644 63.2708 17.644Z" fill="#EE0000" stroke="black" stroke-width="0.2"/>
<path d="M24.9872 17.7192C25.572 17.6868 26.0324 17.6243 26.3709 17.5258C26.7052 17.4286 26.9439 17.2903 27.0506 17.0864H27.0497C27.0928 17.0071 27.1202 16.9259 27.1229 16.8393C27.1256 16.7519 27.1029 16.6669 27.0584 16.5815C26.9722 16.4159 26.798 16.2381 26.537 16.018C26.2615 15.7819 26.0877 15.5525 25.954 15.1489C25.8517 14.8403 25.7731 14.4306 25.6942 13.8393L25.6141 13.184C25.2334 9.73802 24.7533 8.28375 23.5907 7.24652C23.0116 6.72993 22.2446 6.34668 21.4774 6.18207H21.4764C21.0744 6.09942 20.4811 6.0646 19.9042 6.07269C19.328 6.0808 18.7554 6.13163 18.3954 6.22601H18.3944C17.543 6.45525 16.7594 6.87546 16.1874 7.36469C15.6198 7.85011 15.2411 8.42066 15.2411 8.95355C15.2411 9.15476 15.3208 9.3744 15.4393 9.56C15.5282 9.69907 15.644 9.82674 15.7752 9.91547L15.912 9.99066C16.4333 10.2354 17.1241 10.2707 17.577 10.0873H17.578C17.6843 10.0431 17.778 9.99679 17.8612 9.92719C17.9451 9.8569 18.0132 9.76723 18.078 9.64301C18.2046 9.40006 18.3273 9.00473 18.5272 8.31683C18.6449 7.92608 18.7851 7.67421 18.9588 7.52777C19.1277 7.38553 19.3421 7.33133 19.6385 7.36664H19.6395C20.0757 7.41222 20.3978 7.58205 20.6698 7.95258C20.9473 8.33073 21.1752 8.92118 21.4032 9.81586L21.6131 10.6479C21.6344 10.7455 21.6473 10.822 21.6532 10.8813C21.6592 10.9423 21.6562 10.9768 21.6512 10.9946C21.6506 10.9966 21.6497 10.9982 21.6493 10.9995C21.6433 11.0009 21.6269 11.004 21.5917 10.9985C21.5071 10.9852 21.3829 10.941 21.1952 10.8774H21.1942C20.0137 10.4836 18.7023 10.5165 17.5877 10.8686C16.4752 11.2201 15.5433 11.8954 15.1415 12.8002C14.3873 14.5111 15.2684 16.5418 17.0946 17.3881H17.0956C17.4022 17.5286 17.6001 17.6094 17.8905 17.6518C18.1753 17.6933 18.5481 17.6977 19.204 17.6977C19.989 17.6977 20.5506 17.6605 21.0135 17.5532C21.3632 17.4721 21.6551 17.3521 21.9432 17.1811L22.2323 16.9926L22.2333 16.9916L22.5487 16.7602L22.6131 16.9438L22.6141 16.9467C22.7155 17.2095 22.9419 17.3848 23.3084 17.5493L23.3104 17.5502C23.5437 17.6489 23.7176 17.7067 23.9598 17.7309C24.1972 17.7546 24.4987 17.746 24.9872 17.7192ZM20.4549 16.5854C19.9899 16.5852 19.5802 16.3347 19.2733 15.8842C18.9653 15.4322 18.7648 14.7824 18.7274 14.0063C18.7111 13.6142 18.7115 13.3787 18.7372 13.2055C18.7618 13.0391 18.8098 12.9285 18.8963 12.7875L19.0331 12.5991C19.1735 12.4269 19.3268 12.3033 19.5018 12.2202C19.7357 12.1091 20.0186 12.0662 20.3827 12.0922H20.3846C20.6752 12.1085 20.8271 12.1272 20.9461 12.1772C21.0332 12.2138 21.1072 12.2697 21.2079 12.3676L21.3182 12.4799C21.6474 12.8356 21.8729 13.4118 21.9569 14.018C22.0409 14.6246 21.981 15.2414 21.7596 15.6733C21.4677 16.2391 20.9528 16.5854 20.4549 16.5854Z" fill="#EE0000" stroke="black" stroke-width="0.2"/>
<path d="M70.5364 17.5877C71.8745 17.926 73.7058 17.7524 74.8821 17.1609C75.5215 16.8398 76.1055 16.2593 76.4993 15.6395C76.8902 15.024 77.1095 14.3442 76.9797 13.826L76.9788 13.825C76.9474 13.7042 76.9043 13.6004 76.8381 13.5301C76.7657 13.4533 76.6719 13.4229 76.5667 13.4402C76.4698 13.4563 76.3675 13.5117 76.26 13.5916C76.2052 13.6323 76.1465 13.6814 76.0842 13.7381L75.886 13.9305C75.1787 14.6481 74.4402 14.9847 73.5227 15.0154L73.3362 15.0174C71.9584 15.0069 70.8383 14.329 70.1809 13.1151C69.3029 11.498 69.2976 9.65847 70.1448 8.34161H70.1438C70.5283 7.74683 71.0851 7.44318 71.7795 7.44318C72.1766 7.44319 72.4209 7.49973 72.6506 7.69513C72.8899 7.89859 73.1212 8.25767 73.4651 8.89337C73.8221 9.55531 74.073 9.95932 74.3684 10.1893C74.6729 10.4261 75.0133 10.4706 75.5129 10.4598C76.0065 10.4543 76.3667 10.3772 76.5999 10.1609C76.8354 9.94227 76.9172 9.60446 76.9172 9.1463C76.9171 8.49331 76.5803 7.86747 76.0237 7.35529C75.5362 6.90673 74.876 6.54023 74.1077 6.31329L73.7717 6.2254C73.3313 6.12089 72.7349 6.07231 72.1526 6.07501C71.6436 6.0774 71.1378 6.11935 70.7493 6.20001L70.5901 6.23615C69.4841 6.51998 68.5986 7.03466 67.76 7.85138H67.759C65.9314 9.65535 65.5573 12.1291 66.7278 14.5486L66.8635 14.8065C67.5909 16.0835 69.0622 17.2087 70.5354 17.5877H70.5364Z" fill="#EE0000" stroke="black" stroke-width="0.2"/>
<path d="M83.6287 17.7513C85.35 17.7513 86.7388 17.1843 87.7615 16.0433L87.9109 15.8695C88.2457 15.4611 88.4788 15.0349 88.5857 14.6635C88.6467 14.4513 88.6682 14.2506 88.6394 14.0795C88.6102 13.9064 88.5281 13.7591 88.3816 13.6683L88.3806 13.6693C88.3357 13.6393 88.2856 13.6166 88.2273 13.6127C88.1681 13.6088 88.1101 13.6239 88.0525 13.6508C87.9417 13.7023 87.8086 13.8094 87.6306 13.9691V13.9701C87.3767 14.1887 86.8638 14.515 86.4802 14.6937C85.24 15.269 83.694 15.0786 82.7361 14.2474L82.7351 14.2465C82.5207 14.0658 82.2874 13.7909 82.1208 13.5502C82.0376 13.4298 81.9733 13.322 81.9373 13.2416C81.9256 13.2155 81.9195 13.1941 81.9148 13.1781C81.9442 13.1663 81.9856 13.15 82.0378 13.1302C82.144 13.0902 82.2931 13.035 82.4744 12.9691C82.8373 12.8372 83.328 12.6622 83.8562 12.475C84.9129 12.1005 86.1204 11.6787 86.7615 11.4642C87.4471 11.2351 87.8309 11.0997 88.0593 10.9594C88.1773 10.8868 88.2584 10.8103 88.3201 10.7162C88.3502 10.6702 88.3744 10.6211 88.3962 10.5687L88.4568 10.4017V10.3998C88.6704 9.69327 88.4278 8.85882 87.9167 8.12341C87.404 7.38567 86.6109 6.73044 85.6882 6.37927H85.6873C85.2858 6.22861 84.5903 6.13133 83.9041 6.099C83.3038 6.07073 82.6929 6.09086 82.2761 6.17517L82.1101 6.21521C80.6931 6.61951 79.2775 7.73159 78.6111 8.97009C77.3397 11.3269 77.823 14.5566 79.7087 16.2758C80.8492 17.3248 81.9951 17.7513 83.6287 17.7513ZM81.3542 11.5199C81.3356 11.5183 81.3264 11.5161 81.322 11.5131C81.3204 11.5069 81.32 11.4982 81.3181 11.4877C81.314 11.4655 81.3092 11.4359 81.3054 11.3998C81.2979 11.3276 81.2928 11.2325 81.2888 11.1205C81.2808 10.8963 81.28 10.6085 81.2908 10.3099C81.3071 9.8591 81.3289 9.57349 81.3748 9.34607C81.4086 9.17807 81.4563 9.04021 81.5271 8.88904L81.6062 8.73181L81.7273 8.51697C82.0158 8.03976 82.3492 7.72827 82.7087 7.57556C83.1161 7.40259 83.5716 7.42708 84.0613 7.66833C84.3427 7.81233 84.5612 7.99256 84.7302 8.22888C84.8998 8.46599 85.0231 8.76408 85.1082 9.14685C85.1885 9.5065 85.1976 9.7656 85.1423 9.95447C85.0892 10.1357 84.9739 10.2629 84.7732 10.3549L84.7722 10.3558C84.5923 10.4394 83.7485 10.7591 82.8777 11.0599L82.8767 11.0609C82.2115 11.2977 81.8198 11.4301 81.5837 11.4877C81.4646 11.5167 81.3949 11.5232 81.3542 11.5199Z" fill="#EE0000" stroke="black" stroke-width="0.2"/>
</svg>
